<svg xmlns="http://www.w3.org/2000/svg" xmlns:xlink="http://www.w3.org/1999/xlink" width="500" zoomAndPan="magnify" viewBox="0 0 375 374.999991" height="500" preserveAspectRatio="xMidYMid meet" version="1.0"><defs><g/></defs><g fill="#292929" fill-opacity="1"><g transform="translate(127.3013, 199.675113)"><g><path d="M 5.078125 -3.40625 C 2.515625 -6.207031 1.234375 -9.640625 1.234375 -13.703125 C 1.234375 -17.773438 2.515625 -21.222656 5.078125 -24.046875 C 7.648438 -26.867188 10.921875 -28.28125 14.890625 -28.28125 C 18.535156 -28.28125 21.535156 -27.140625 23.890625 -24.859375 L 23.890625 -46.0625 L 33.375 -46.0625 L 33.375 0 L 24 0 L 24 -3.109375 L 23.890625 -3.109375 C 21.535156 -0.503906 18.535156 0.796875 14.890625 0.796875 C 10.921875 0.796875 7.648438 -0.601562 5.078125 -3.40625 Z M 13.140625 -18.359375 C 11.910156 -17.148438 11.296875 -15.597656 11.296875 -13.703125 C 11.296875 -11.816406 11.882812 -10.273438 13.0625 -9.078125 C 14.25 -7.878906 15.804688 -7.28125 17.734375 -7.28125 C 19.585938 -7.28125 21.113281 -7.882812 22.3125 -9.09375 C 23.507812 -10.3125 24.109375 -11.851562 24.109375 -13.71875 C 24.109375 -15.601562 23.488281 -17.148438 22.25 -18.359375 C 21.019531 -19.578125 19.515625 -20.1875 17.734375 -20.1875 C 15.910156 -20.1875 14.378906 -19.578125 13.140625 -18.359375 Z M 13.140625 -18.359375 "/></g></g></g><g fill="#292929" fill-opacity="1"><g transform="translate(159.325045, 199.675113)"><g><path d="M 5.8125 -3.265625 C 2.757812 -5.984375 1.234375 -9.460938 1.234375 -13.703125 C 1.234375 -17.953125 2.820312 -21.441406 6 -24.171875 C 9.175781 -26.910156 13.101562 -28.28125 17.78125 -28.28125 C 22.382812 -28.28125 26.265625 -26.90625 29.421875 -24.15625 C 32.585938 -21.40625 34.171875 -17.921875 34.171875 -13.703125 C 34.171875 -9.492188 32.625 -6.023438 29.53125 -3.296875 C 26.445312 -0.566406 22.53125 0.796875 17.78125 0.796875 C 12.851562 0.796875 8.863281 -0.554688 5.8125 -3.265625 Z M 13.140625 -18.359375 C 11.910156 -17.148438 11.296875 -15.597656 11.296875 -13.703125 C 11.296875 -11.816406 11.882812 -10.273438 13.0625 -9.078125 C 14.25 -7.878906 15.804688 -7.28125 17.734375 -7.28125 C 19.585938 -7.28125 21.113281 -7.882812 22.3125 -9.09375 C 23.507812 -10.3125 24.109375 -11.851562 24.109375 -13.71875 C 24.109375 -15.601562 23.488281 -17.148438 22.25 -18.359375 C 21.019531 -19.578125 19.515625 -20.1875 17.734375 -20.1875 C 15.910156 -20.1875 14.378906 -19.578125 13.140625 -18.359375 Z M 13.140625 -18.359375 "/></g></g></g><g fill="#292929" fill-opacity="1"><g transform="translate(190.170609, 199.675113)"><g><path d="M 5.8125 -3.265625 C 2.757812 -5.984375 1.234375 -9.460938 1.234375 -13.703125 C 1.234375 -17.953125 2.820312 -21.441406 6 -24.171875 C 9.175781 -26.910156 13.101562 -28.28125 17.78125 -28.28125 C 22.382812 -28.28125 26.265625 -26.90625 29.421875 -24.15625 C 32.585938 -21.40625 34.171875 -17.921875 34.171875 -13.703125 C 34.171875 -9.492188 32.625 -6.023438 29.53125 -3.296875 C 26.445312 -0.566406 22.53125 0.796875 17.78125 0.796875 C 12.851562 0.796875 8.863281 -0.554688 5.8125 -3.265625 Z M 13.140625 -18.359375 C 11.910156 -17.148438 11.296875 -15.597656 11.296875 -13.703125 C 11.296875 -11.816406 11.882812 -10.273438 13.0625 -9.078125 C 14.25 -7.878906 15.804688 -7.28125 17.734375 -7.28125 C 19.585938 -7.28125 21.113281 -7.882812 22.3125 -9.09375 C 23.507812 -10.3125 24.109375 -11.851562 24.109375 -13.71875 C 24.109375 -15.601562 23.488281 -17.148438 22.25 -18.359375 C 21.019531 -19.578125 19.515625 -20.1875 17.734375 -20.1875 C 15.910156 -20.1875 14.378906 -19.578125 13.140625 -18.359375 Z M 13.140625 -18.359375 "/></g></g></g><g fill="#292929" fill-opacity="1"><g transform="translate(221.016173, 199.675113)"><g><path d="M 3.21875 0 L 3.21875 -27.484375 L 12.6875 -27.484375 L 12.6875 -23.515625 L 12.796875 -23.515625 C 12.867188 -23.660156 12.984375 -23.835938 13.140625 -24.046875 C 13.304688 -24.265625 13.65625 -24.640625 14.1875 -25.171875 C 14.726562 -25.710938 15.300781 -26.195312 15.90625 -26.625 C 16.507812 -27.050781 17.296875 -27.429688 18.265625 -27.765625 C 19.234375 -28.109375 20.210938 -28.28125 21.203125 -28.28125 C 22.242188 -28.28125 23.265625 -28.132812 24.265625 -27.84375 C 25.265625 -27.5625 25.992188 -27.28125 26.453125 -27 L 27.203125 -26.5625 L 23.25 -18.53125 C 22.070312 -19.53125 20.425781 -20.03125 18.3125 -20.03125 C 17.175781 -20.03125 16.195312 -19.78125 15.375 -19.28125 C 14.550781 -18.78125 13.96875 -18.171875 13.625 -17.453125 C 13.289062 -16.742188 13.050781 -16.140625 12.90625 -15.640625 C 12.757812 -15.140625 12.6875 -14.75 12.6875 -14.46875 L 12.6875 0 Z M 3.21875 0 "/></g></g></g><path stroke-linecap="butt" transform="matrix(0.75, 0, 0, 0.75, 90.574247, 228.073111)" fill="none" stroke-linejoin="miter" d="M -0.0000370697 5.001478 L 84.43226 5.001478 " stroke="#292929" stroke-width="10" stroke-opacity="1" stroke-miterlimit="4"/><path stroke-linecap="butt" transform="matrix(0, 0.75, -0.75, 0, 98.070394, 171.479461)" fill="none" stroke-linejoin="miter" d="M 0.00134401 5.000109 L 82.464891 5.000109 " stroke="#292929" stroke-width="10" stroke-opacity="1" stroke-miterlimit="4"/><path stroke-linecap="butt" transform="matrix(-0.75, 0, 0, -0.75, 283.487477, 146.919132)" fill="none" stroke-linejoin="miter" d="M -0.00107222 5.001551 L 84.431225 5.001551 " stroke="#292929" stroke-width="10" stroke-opacity="1" stroke-miterlimit="4"/><path stroke-linecap="butt" transform="matrix(0, -0.75, 0.75, 0, 275.991344, 203.512837)" fill="none" stroke-linejoin="miter" d="M 0.00149105 5.001125 L 82.465038 5.001125 " stroke="#292929" stroke-width="10" stroke-opacity="1" stroke-miterlimit="4"/><g fill="#ffcc00" fill-opacity="1"><g transform="translate(168.848139, 250.198109)"><g><path d="M 17.84375 -20.515625 C 16.050781 -20.515625 14.507812 -19.851562 13.21875 -18.53125 C 11.9375 -17.207031 11.296875 -15.617188 11.296875 -13.765625 C 11.296875 -11.867188 11.9375 -10.257812 13.21875 -8.9375 C 14.507812 -7.625 16.050781 -6.96875 17.84375 -6.96875 C 18.695312 -6.96875 19.503906 -7.070312 20.265625 -7.28125 C 21.035156 -7.5 21.597656 -7.710938 21.953125 -7.921875 L 22.4375 -8.25 L 25.65625 -1.65625 C 25.40625 -1.476562 25.054688 -1.253906 24.609375 -0.984375 C 24.160156 -0.722656 23.140625 -0.363281 21.546875 0.09375 C 19.960938 0.5625 18.257812 0.796875 16.4375 0.796875 C 12.40625 0.796875 8.863281 -0.617188 5.8125 -3.453125 C 2.757812 -6.296875 1.234375 -9.695312 1.234375 -13.65625 C 1.234375 -17.65625 2.757812 -21.09375 5.8125 -23.96875 C 8.863281 -26.84375 12.40625 -28.28125 16.4375 -28.28125 C 18.257812 -28.28125 19.9375 -28.066406 21.46875 -27.640625 C 23.007812 -27.210938 24.101562 -26.785156 24.75 -26.359375 L 25.65625 -25.703125 L 22.4375 -19.234375 C 21.257812 -20.085938 19.726562 -20.515625 17.84375 -20.515625 Z M 17.84375 -20.515625 "/></g></g></g><g fill="#ffcc00" fill-opacity="1"><g transform="translate(190.590147, 250.198109)"><g><path d="M 5.8125 -3.265625 C 2.757812 -5.984375 1.234375 -9.460938 1.234375 -13.703125 C 1.234375 -17.953125 2.820312 -21.441406 6 -24.171875 C 9.175781 -26.910156 13.101562 -28.28125 17.78125 -28.28125 C 22.382812 -28.28125 26.265625 -26.90625 29.421875 -24.15625 C 32.585938 -21.40625 34.171875 -17.921875 34.171875 -13.703125 C 34.171875 -9.492188 32.625 -6.023438 29.53125 -3.296875 C 26.445312 -0.566406 22.53125 0.796875 17.78125 0.796875 C 12.851562 0.796875 8.863281 -0.554688 5.8125 -3.265625 Z M 13.140625 -18.359375 C 11.910156 -17.148438 11.296875 -15.597656 11.296875 -13.703125 C 11.296875 -11.816406 11.882812 -10.273438 13.0625 -9.078125 C 14.25 -7.878906 15.804688 -7.28125 17.734375 -7.28125 C 19.585938 -7.28125 21.113281 -7.882812 22.3125 -9.09375 C 23.507812 -10.3125 24.109375 -11.851562 24.109375 -13.71875 C 24.109375 -15.601562 23.488281 -17.148438 22.25 -18.359375 C 21.019531 -19.578125 19.515625 -20.1875 17.734375 -20.1875 C 15.910156 -20.1875 14.378906 -19.578125 13.140625 -18.359375 Z M 13.140625 -18.359375 "/></g></g></g><g fill="#ffcc00" fill-opacity="1"><g transform="translate(221.436459, 250.198109)"><g><path d="M 5.078125 -3.40625 C 2.515625 -6.207031 1.234375 -9.640625 1.234375 -13.703125 C 1.234375 -17.773438 2.515625 -21.222656 5.078125 -24.046875 C 7.648438 -26.867188 10.921875 -28.28125 14.890625 -28.28125 C 18.535156 -28.28125 21.535156 -27.140625 23.890625 -24.859375 L 23.890625 -46.0625 L 33.375 -46.0625 L 33.375 0 L 24 0 L 24 -3.109375 L 23.890625 -3.109375 C 21.535156 -0.503906 18.535156 0.796875 14.890625 0.796875 C 10.921875 0.796875 7.648438 -0.601562 5.078125 -3.40625 Z M 13.140625 -18.359375 C 11.910156 -17.148438 11.296875 -15.597656 11.296875 -13.703125 C 11.296875 -11.816406 11.882812 -10.273438 13.0625 -9.078125 C 14.25 -7.878906 15.804688 -7.28125 17.734375 -7.28125 C 19.585938 -7.28125 21.113281 -7.882812 22.3125 -9.09375 C 23.507812 -10.3125 24.109375 -11.851562 24.109375 -13.71875 C 24.109375 -15.601562 23.488281 -17.148438 22.25 -18.359375 C 21.019531 -19.578125 19.515625 -20.1875 17.734375 -20.1875 C 15.910156 -20.1875 14.378906 -19.578125 13.140625 -18.359375 Z M 13.140625 -18.359375 "/></g></g></g><g fill="#ffcc00" fill-opacity="1"><g transform="translate(253.460985, 250.198109)"><g><path d="M 31.015625 -12.421875 L 11.09375 -12.421875 C 11.09375 -10.492188 11.71875 -9.066406 12.96875 -8.140625 C 14.21875 -7.210938 15.570312 -6.75 17.03125 -6.75 C 18.570312 -6.75 19.785156 -6.953125 20.671875 -7.359375 C 21.566406 -7.773438 22.585938 -8.585938 23.734375 -9.796875 L 30.578125 -6.375 C 27.722656 -1.59375 22.976562 0.796875 16.34375 0.796875 C 12.195312 0.796875 8.640625 -0.617188 5.671875 -3.453125 C 2.710938 -6.296875 1.234375 -9.71875 1.234375 -13.71875 C 1.234375 -17.71875 2.710938 -21.144531 5.671875 -24 C 8.640625 -26.851562 12.195312 -28.28125 16.34375 -28.28125 C 20.695312 -28.28125 24.238281 -27.019531 26.96875 -24.5 C 29.695312 -21.988281 31.0625 -18.394531 31.0625 -13.71875 C 31.0625 -13.070312 31.046875 -12.640625 31.015625 -12.421875 Z M 11.359375 -17.671875 L 21.796875 -17.671875 C 21.585938 -19.097656 21.023438 -20.195312 20.109375 -20.96875 C 19.203125 -21.738281 18.035156 -22.125 16.609375 -22.125 C 15.035156 -22.125 13.785156 -21.710938 12.859375 -20.890625 C 11.929688 -20.066406 11.429688 -18.992188 11.359375 -17.671875 Z M 11.359375 -17.671875 "/></g></g></g><g fill="#ffcc00" fill-opacity="1"><g transform="translate(45.514263, 150.713544)"><g><path d="M 24.046875 -27.484375 L 34.96875 -27.484375 L 13.390625 13.921875 L 2.46875 13.921875 L 11.9375 -4.28125 L -1.078125 -27.484375 L 9.859375 -27.484375 L 17.515625 -13.390625 Z M 24.046875 -27.484375 "/></g></g></g><g fill="#ffcc00" fill-opacity="1"><g transform="translate(74.861045, 150.713544)"><g><path d="M 31.015625 -12.421875 L 11.09375 -12.421875 C 11.09375 -10.492188 11.71875 -9.066406 12.96875 -8.140625 C 14.21875 -7.210938 15.570312 -6.75 17.03125 -6.75 C 18.570312 -6.75 19.785156 -6.953125 20.671875 -7.359375 C 21.566406 -7.773438 22.585938 -8.585938 23.734375 -9.796875 L 30.578125 -6.375 C 27.722656 -1.59375 22.976562 0.796875 16.34375 0.796875 C 12.195312 0.796875 8.640625 -0.617188 5.671875 -3.453125 C 2.710938 -6.296875 1.234375 -9.71875 1.234375 -13.71875 C 1.234375 -17.71875 2.710938 -21.144531 5.671875 -24 C 8.640625 -26.851562 12.195312 -28.28125 16.34375 -28.28125 C 20.695312 -28.28125 24.238281 -27.019531 26.96875 -24.5 C 29.695312 -21.988281 31.0625 -18.394531 31.0625 -13.71875 C 31.0625 -13.070312 31.046875 -12.640625 31.015625 -12.421875 Z M 11.359375 -17.671875 L 21.796875 -17.671875 C 21.585938 -19.097656 21.023438 -20.195312 20.109375 -20.96875 C 19.203125 -21.738281 18.035156 -22.125 16.609375 -22.125 C 15.035156 -22.125 13.785156 -21.710938 12.859375 -20.890625 C 11.929688 -20.066406 11.429688 -18.992188 11.359375 -17.671875 Z M 11.359375 -17.671875 "/></g></g></g><g fill="#ffcc00" fill-opacity="1"><g transform="translate(102.601189, 150.713544)"><g><path d="M 3.21875 0 L 3.21875 -46.0625 L 12.6875 -46.0625 L 12.6875 0 Z M 3.21875 0 "/></g></g></g><g fill="#ffcc00" fill-opacity="1"><g transform="translate(113.953567, 150.713544)"><g><path d="M 3.21875 0 L 3.21875 -46.0625 L 12.6875 -46.0625 L 12.6875 0 Z M 3.21875 0 "/></g></g></g><g fill="#ffcc00" fill-opacity="1"><g transform="translate(125.305945, 150.713544)"><g><path d="M 5.8125 -3.265625 C 2.757812 -5.984375 1.234375 -9.460938 1.234375 -13.703125 C 1.234375 -17.953125 2.820312 -21.441406 6 -24.171875 C 9.175781 -26.910156 13.101562 -28.28125 17.78125 -28.28125 C 22.382812 -28.28125 26.265625 -26.90625 29.421875 -24.15625 C 32.585938 -21.40625 34.171875 -17.921875 34.171875 -13.703125 C 34.171875 -9.492188 32.625 -6.023438 29.53125 -3.296875 C 26.445312 -0.566406 22.53125 0.796875 17.78125 0.796875 C 12.851562 0.796875 8.863281 -0.554688 5.8125 -3.265625 Z M 13.140625 -18.359375 C 11.910156 -17.148438 11.296875 -15.597656 11.296875 -13.703125 C 11.296875 -11.816406 11.882812 -10.273438 13.0625 -9.078125 C 14.25 -7.878906 15.804688 -7.28125 17.734375 -7.28125 C 19.585938 -7.28125 21.113281 -7.882812 22.3125 -9.09375 C 23.507812 -10.3125 24.109375 -11.851562 24.109375 -13.71875 C 24.109375 -15.601562 23.488281 -17.148438 22.25 -18.359375 C 21.019531 -19.578125 19.515625 -20.1875 17.734375 -20.1875 C 15.910156 -20.1875 14.378906 -19.578125 13.140625 -18.359375 Z M 13.140625 -18.359375 "/></g></g></g><g fill="#ffcc00" fill-opacity="1"><g transform="translate(156.152257, 150.713544)"><g><path d="M 20.078125 0 L 13.65625 0 L -1.078125 -27.484375 L 9.859375 -27.484375 L 16.546875 -12.640625 L 23.140625 -27.484375 L 29.671875 -27.484375 L 36.265625 -12.640625 L 42.953125 -27.484375 L 53.890625 -27.484375 L 39.15625 0 L 32.734375 0 L 26.40625 -14.1875 Z M 20.078125 0 "/></g></g></g></svg>